<svg xmlns="http://www.w3.org/2000/svg" width="26" height="23.001" viewBox="0 0 26 23.001">
  <path id="Bag_For_Shopping._Attribute_as_SimpleIcon_from_Flaticon.com" data-name="Bag For Shopping. Attribute as SimpleIcon from Flaticon.com" d="M1187,48l3.25-23h19.5L1213,48Zm1.872-1.643h22.253l-2.785-19.715h-16.682Zm5.539-14.97a1.632,1.632,0,1,1,2.339-1.459,1.619,1.619,0,0,1-.724,1.33c.394,2.95,2.054,5.241,3.974,5.241s3.58-2.291,3.974-5.241a1.617,1.617,0,0,1-.724-1.33,1.625,1.625,0,1,1,2.339,1.459c-.466,3.883-2.747,6.755-5.589,6.755S1194.878,35.271,1194.411,31.388Z" transform="translate(-1187 -24.999)" fill="#45413e" opacity="0.502"/>
</svg>
