<svg xmlns="http://www.w3.org/2000/svg" width="16.998" height="16.998" viewBox="0 0 16.998 16.998">
  <path id="Expand_2._Attribute_as_Adam_Whitcroft_from_Flaticon.com" data-name="Expand 2. Attribute as Adam Whitcroft from Flaticon.com" d="M89.159,303.657l2.967,2.967a1.062,1.062,0,0,1-1.5,1.5l-2.967-2.967-.842.842A1.062,1.062,0,0,1,85,305.25v-3.187A1.063,1.063,0,0,1,86.063,301H89.25A1.062,1.062,0,0,1,90,302.814ZM100.937,301A1.062,1.062,0,0,1,102,302.063v3.187a1.062,1.062,0,0,1-1.814.751l-.842-.842-2.967,2.967a1.062,1.062,0,0,1-1.5-1.5l2.967-2.967L97,302.814A1.062,1.062,0,0,1,97.75,301Zm-10.313,9.873a1.062,1.062,0,0,1,1.5,1.5l-2.967,2.967.842.843A1.062,1.062,0,0,1,89.25,318H86.063A1.062,1.062,0,0,1,85,316.937V313.75A1.062,1.062,0,0,1,86.814,313l.842.842Zm10.719,1.895a1.062,1.062,0,0,1,.656.982v3.187A1.061,1.061,0,0,1,100.937,318H97.75A1.062,1.062,0,0,1,97,316.186l.842-.843-2.967-2.967a1.062,1.062,0,0,1,1.5-1.5l2.967,2.967.842-.842a1.062,1.062,0,0,1,1.158-.23Z" transform="translate(-85.001 -301.001)" fill="#84bc22"/>
</svg>
