<svg xmlns="http://www.w3.org/2000/svg" width="18" height="15.999" viewBox="0 0 18 15.999">
  <path id="g_" data-name="g+" d="M1137.072,2951.741a4.249,4.249,0,0,1-2.773-1.774,2.241,2.241,0,0,1-.3-1.113,2.8,2.8,0,0,1,.287-1.2,5.226,5.226,0,0,1,4.779-2.572h.062a1.843,1.843,0,0,1-.258-.94,1.976,1.976,0,0,1,.067-.5,3.817,3.817,0,0,1-3.9-3.8,4.071,4.071,0,0,1,2.956-3.568,4.886,4.886,0,0,1,1.574-.268h4.775a.377.377,0,0,1,.357.257.368.368,0,0,1-.138.415l-1.068.765a.373.373,0,0,1-.22.07h-.382a3.651,3.651,0,0,1,.783,2.358,3.515,3.515,0,0,1-1.491,2.76c-.744.573-.774.73-.774,1.059a3.154,3.154,0,0,0,1.1,1.166,3.65,3.65,0,0,1,1.828,3.374,3.864,3.864,0,0,1-3.117,3.513,7.09,7.09,0,0,1-1.952.261A9.053,9.053,0,0,1,1137.072,2951.741Zm-.6-3.394c0,1.209,1.221,2.156,2.78,2.156,2.057,0,3.1-.7,3.1-2.084a1.732,1.732,0,0,0-.049-.4c-.139-.538-.636-.873-1.389-1.381l-.323-.219a3.635,3.635,0,0,0-1.023-.154h-.044C1137.9,2946.262,1136.473,2947.236,1136.473,2948.347Zm1.48-10.5a2.419,2.419,0,0,0-.455,1.928c.184,1.4,1.216,2.606,2.249,2.638h.018a1.254,1.254,0,0,0,.972-.44,2.505,2.505,0,0,0,.47-1.969,2.8,2.8,0,0,0-2.251-2.595h-.042A1.253,1.253,0,0,0,1137.953,2937.851Zm9.81,9.212a.373.373,0,0,1-.376-.371v-2.687h-2.714a.374.374,0,0,1-.375-.372v-.764a.374.374,0,0,1,.375-.373h2.714v-2.685a.373.373,0,0,1,.376-.371h.773a.372.372,0,0,1,.374.371v2.685h2.714a.374.374,0,0,1,.375.372v.765a.374.374,0,0,1-.375.372h-2.714v2.687a.372.372,0,0,1-.374.371Z" transform="translate(-1134 -2936.001)"/>
</svg>
