<svg xmlns="http://www.w3.org/2000/svg" width="24.998" height="21.998" viewBox="0 0 24.998 21.998">
  <path id="Heart_Outline_Rounded_Shape._Attribute_as_Freepik_from_Flaticon.com" data-name="Heart Outline Rounded Shape. Attribute as Freepik from Flaticon.com" d="M1145.295,25A6.511,6.511,0,0,0,1141,26.637c-.763.671-1.2.945-1.5.945s-.738-.274-1.5-.945A6.507,6.507,0,0,0,1133.705,25a6.889,6.889,0,0,0-6.7,7.045,8.578,8.578,0,0,0,1.876,5.086l6,7.687a5.156,5.156,0,0,0,8.272.2l6.757-7.882A8.228,8.228,0,0,0,1152,32.045,6.888,6.888,0,0,0,1145.295,25Zm3.39,11.021-6.736,7.857a3.588,3.588,0,0,1-5.814-.14l-5.985-7.66a6.926,6.926,0,0,1-1.529-4.033,5.224,5.224,0,0,1,5.084-5.343,4.93,4.93,0,0,1,3.253,1.24,3.078,3.078,0,0,0,5.083,0,4.936,4.936,0,0,1,3.253-1.24,5.224,5.224,0,0,1,5.084,5.342A6.5,6.5,0,0,1,1148.685,36.021Z" transform="translate(-1127 -25)" fill="#45413e" opacity="0.502"/>
</svg>
