<svg xmlns="http://www.w3.org/2000/svg" width="13" height="16.001" viewBox="0 0 13 16.001">
  <path id="p" d="M1214.894,2936c-4.583,0-6.894,3.131-6.894,5.742a3.507,3.507,0,0,0,1.975,3.51.335.335,0,0,0,.483-.23c.044-.161.15-.567.2-.737.064-.231.039-.311-.139-.512a2.575,2.575,0,0,1-.637-1.8,4.467,4.467,0,0,1,4.749-4.4c2.59,0,4.013,1.508,4.013,3.522,0,2.65-1.231,4.887-3.058,4.887a1.444,1.444,0,0,1-1.523-1.771,18.969,18.969,0,0,0,.851-3.261,1.254,1.254,0,0,0-1.3-1.379,2.135,2.135,0,0,0-1.86,2.378,3.4,3.4,0,0,0,.308,1.455s-1.055,4.262-1.241,5.009a9.833,9.833,0,0,0-.029,3.492.13.13,0,0,0,.229.053,9.71,9.71,0,0,0,1.741-3.008c.118-.409.678-2.526.678-2.526a2.8,2.8,0,0,0,2.357,1.145c3.1,0,5.2-2.693,5.2-6.3C1221,2938.54,1218.577,2936,1214.894,2936Z" transform="translate(-1208 -2936)"/>
</svg>
