<svg xmlns="http://www.w3.org/2000/svg" width="90" height="90" viewBox="0 0 90 90">
  <g id="_1" data-name="1" transform="translate(-690.45 -926.94)">
    <circle id="Ellipse_2_copy" data-name="Ellipse 2 copy" cx="45" cy="45" r="45" transform="translate(690.45 926.94)" fill="#fff"/>
    <path id="Plus_24x24_" data-name="Plus (24x24)" d="M748.844,974.984H738.5v10.348a.609.609,0,0,1-.609.609h-4.87a.609.609,0,0,1-.609-.609V974.984H722.062a.609.609,0,0,1-.609-.609v-4.869a.609.609,0,0,1,.609-.609H732.41V958.549a.609.609,0,0,1,.609-.609h4.87a.609.609,0,0,1,.609.609V968.9h10.348a.609.609,0,0,1,.609.609v4.869A.608.608,0,0,1,748.844,974.984Z" fill="#23c46e"/>
  </g>
</svg>
