<svg xmlns="http://www.w3.org/2000/svg" width="23" height="23.001" viewBox="0 0 23 23.001">
  <path id="Search_Information._Attribute_as_Designmodo_from_Flaticon.com" data-name="Search Information. Attribute as Designmodo from Flaticon.com" d="M1008,45.464a2.525,2.525,0,0,1,.76-1.808l-.005,0,6-5.995a8.628,8.628,0,1,1,3.585,3.588l-5.995,5.994h0A2.534,2.534,0,0,1,1008,45.464Zm1.652-.916.006.006a1.264,1.264,0,1,0,1.788,1.787l5.8-5.8a8.689,8.689,0,0,1-1.792-1.8Zm5.536-10.922a7.187,7.187,0,1,0,7.187-7.187A7.189,7.189,0,0,0,1015.187,33.625Zm2.156,0a5.031,5.031,0,0,1,5.031-5.031.359.359,0,1,1,0,.718,4.312,4.312,0,0,0-4.312,4.313.36.36,0,0,1-.719,0Z" transform="translate(-1008 -24.999)" fill="#45413e" opacity="0.502"/>
</svg>
