<svg xmlns="http://www.w3.org/2000/svg" width="16.003" height="13" viewBox="0 0 16.003 13">
  <path id="t" d="M1187,2938.54a6.561,6.561,0,0,1-1.886.516,3.29,3.29,0,0,0,1.444-1.816,6.6,6.6,0,0,1-2.085.8,3.285,3.285,0,0,0-5.594,2.993,9.322,9.322,0,0,1-6.768-3.429,3.285,3.285,0,0,0,1.016,4.382,3.27,3.27,0,0,1-1.487-.411c0,.014,0,.028,0,.042a3.286,3.286,0,0,0,2.634,3.218,3.3,3.3,0,0,1-1.483.056,3.286,3.286,0,0,0,3.067,2.279,6.621,6.621,0,0,1-4.861,1.359,9.338,9.338,0,0,0,14.375-7.863q0-.214-.009-.425A6.655,6.655,0,0,0,1187,2938.54Z" transform="translate(-1170.996 -2937)"/>
</svg>
