<svg xmlns="http://www.w3.org/2000/svg" width="23" height="23.001" viewBox="0 0 23 23.001">
  <path id="Profile_User_Outline._Attribute_as_Situ_Herrera_from_Flaticon.com" data-name="Profile User Outline. Attribute as Situ Herrera from Flaticon.com" d="M1079.5,40.812c3.567,0,6.469-3.547,6.469-7.906S1083.067,25,1079.5,25a5.91,5.91,0,0,0-4.627,2.376,8.85,8.85,0,0,0-1.841,5.531C1073.031,37.265,1075.933,40.812,1079.5,40.812Zm0-14.374c2.774,0,5.031,2.9,5.031,6.469s-2.257,6.469-5.031,6.469-5.031-2.9-5.032-6.469S1076.726,26.438,1079.5,26.438Zm5.031,12.937a.719.719,0,1,0,0,1.437,5.038,5.038,0,0,1,5.031,5.032.72.72,0,0,1-.719.719h-18.688a.72.72,0,0,1-.719-.719,5.038,5.038,0,0,1,5.031-5.032.719.719,0,1,0,0-1.437A6.476,6.476,0,0,0,1068,45.844,2.159,2.159,0,0,0,1070.156,48h18.688A2.159,2.159,0,0,0,1091,45.844,6.476,6.476,0,0,0,1084.531,39.375Z" transform="translate(-1068 -25)" fill="#45413e" opacity="0.502"/>
</svg>
