<svg xmlns="http://www.w3.org/2000/svg" width="366" height="366" viewBox="0 0 366 366">
  <path id="Exclamation_Mark_Inside_An_Octahedron._Attribute_as_Elegant_Themes_from_Flaticon.com" data-name="Exclamation Mark Inside An Octahedron. Attribute as Elegant Themes from Flaticon.com" d="M269.519,334.7A22.917,22.917,0,0,0,253.3,328H120.688a22.816,22.816,0,0,0-16.175,6.7l-93.79,93.81A22.714,22.714,0,0,0,4,444.688V577.347a22.85,22.85,0,0,0,6.7,16.173l93.79,93.8a22.986,22.986,0,0,0,16.2,6.68H253.347a22.9,22.9,0,0,0,16.173-6.7L363.3,593.476A22.789,22.789,0,0,0,370,577.3V444.688a22.864,22.864,0,0,0-6.7-16.175Zm77.606,242.6L253.3,671.125H120.688L26.875,577.3V444.688l93.813-93.813H253.347l93.778,93.813ZM187,396.625A22.889,22.889,0,0,0,164.125,419.5V533.875a22.875,22.875,0,0,0,45.75,0V419.5A22.889,22.889,0,0,0,187,396.625ZM164.125,602.5A22.875,22.875,0,1,0,187,579.625,22.87,22.87,0,0,0,164.125,602.5Z" transform="translate(-4 -328)" fill="#f1edea" opacity="0.302"/>
</svg>
