<svg xmlns="http://www.w3.org/2000/svg" width="54.999" height="67" viewBox="0 0 54.999 67">
  <path id="Clipboard_Verification_Symbol._Attribute_as_Freepik_from_Flaticon.com" data-name="Clipboard Verification Symbol. Attribute as Freepik from Flaticon.com" d="M885.011,2753.786h-1.486a1.432,1.432,0,0,1-1.438-1.426v-.048a3.325,3.325,0,0,0-3.339-3.311h-.077a3.325,3.325,0,0,0-3.338,3.311v.048a1.432,1.432,0,0,1-1.438,1.426H872.41a2.854,2.854,0,0,0-2.866,2.843v.057a2.854,2.854,0,0,0,2.866,2.843h12.6a2.855,2.855,0,0,0,2.866-2.843v-.057A2.855,2.855,0,0,0,885.011,2753.786Zm-6.3,0a1.436,1.436,0,1,1,1.447-1.436A1.442,1.442,0,0,1,878.711,2753.786Zm6.444,55.514H860.86a3.844,3.844,0,0,1-3.86-3.828v-45.943c0-2.115,1.728-3.829,2.895-3.829h7.82a4.91,4.91,0,0,0-.1.987,4.782,4.782,0,0,0,4.8,4.757h12.6a4.794,4.794,0,0,0,4.8-4.815,4.726,4.726,0,0,0-.094-.928H895.6c3.1,0,4.824,1.714,4.824,3.829v28.762c-.321-.02-.639-.048-.965-.048a15.469,15.469,0,0,0-3.859.5v-22.519H861.825v38.286h22.241A15.093,15.093,0,0,0,885.154,2809.3Zm14.3-18.186A12.443,12.443,0,1,0,912,2803.557,12.493,12.493,0,0,0,899.456,2791.114Zm8.2,9.886-7.719,8.615a1.942,1.942,0,0,1-2.648.222l-4.825-3.829a1.9,1.9,0,0,1-.3-2.69,1.939,1.939,0,0,1,2.712-.3l3.394,2.693,6.5-7.256a1.94,1.94,0,0,1,2.724-.159A1.9,1.9,0,0,1,907.652,2801Zm-16.88-18.5H865.685a.961.961,0,0,1-.965-.957v-.957a.961.961,0,0,1,.965-.957h25.087a.961.961,0,0,1,.965.957v.957A.961.961,0,0,1,890.772,2782.5Zm0-8.614H865.685a.961.961,0,0,1-.965-.957v-.958a.961.961,0,0,1,.965-.957h25.087a.961.961,0,0,1,.965.957v.958A.961.961,0,0,1,890.772,2773.885Zm-4.824,16.271H865.685a.961.961,0,0,1-.965-.957v-.957a.961.961,0,0,1,.965-.957h20.263a.961.961,0,0,1,.965.957v.957A.961.961,0,0,1,885.947,2790.157Zm-1.93,8.615H865.685a.961.961,0,0,1-.965-.957v-.957a.961.961,0,0,1,.965-.957h18.333a.961.961,0,0,1,.965.957v.957A.961.961,0,0,1,884.018,2798.771Z" transform="translate(-857.001 -2749)" fill="#84bc22"/>
</svg>
