<svg xmlns="http://www.w3.org/2000/svg" width="58.996" height="67.003" viewBox="0 0 58.996 67.003">
  <path id="Delivery_Packages_On_A_Trolley._Attribute_as_Freepik_from_Flaticon.com" data-name="Delivery Packages On A Trolley. Attribute as Freepik from Flaticon.com" d="M55.368,2764.555a7.243,7.243,0,0,1,13.757-4.535l14.233,43.1a9.515,9.515,0,0,0-4.145-.157l-13.779-41.729a3.356,3.356,0,0,0-6.374,2.1,1.944,1.944,0,0,1-3.692,1.217Zm56.078,33.812-23.32,7.688a9.513,9.513,0,0,1,1.9,3.316c.015.045.023.091.037.135l22.6-7.451a1.942,1.942,0,1,0-1.218-3.689ZM88.18,2809.981a7.635,7.635,0,1,1-9.643-4.855A7.627,7.627,0,0,1,88.18,2809.981Zm-3.625,1.195a3.817,3.817,0,1,0-2.429,4.818A3.818,3.818,0,0,0,84.555,2811.175Zm21-42.044,7.917,23.976a.971.971,0,0,1-.618,1.226l-24.919,8.215a.972.972,0,0,1-1.227-.618l-7.917-23.976a.97.97,0,0,1,.618-1.226l24.919-8.215A.972.972,0,0,1,105.552,2769.131Zm-3.3,13.927-8.485-4.665-4.039,8.793,2.674,1.23,1.747-3.8,3.154,9.55,3.018-1-3.153-9.549,3.668,2.018Zm-7.4-14.3-5.062-15.329a.622.622,0,0,0-.785-.4l-4.34,1.431-.021.039-.036-.02-2.29.755,1.886,5.71-2.583.852-1.886-5.711-2.291.755-.017.038-.041-.019-4.312,1.422a.621.621,0,0,0-.4.784l5.062,15.329a.622.622,0,0,0,.785.4l15.932-5.252A.621.621,0,0,0,94.852,2768.754Z" transform="translate(-55.003 -2752.999)" fill="#84bc22"/>
</svg>
