<svg xmlns="http://www.w3.org/2000/svg" width="60.993" height="59.009" viewBox="0 0 60.993 59.009">
  <path id="Triangular_Arrows_Sign_For_Recycle._Attribute_as_Freepik_from_Flaticon.com" data-name="Triangular Arrows Sign For Recycle. Attribute as Freepik from Flaticon.com" d="M456.32,2774.034l3.818,3-3.593,6.931c-1.8,3.2,1.29,6.309,3.257,7.393,1.936,1.067,4.941,1.193,7.748,1.155l5.053-8.317,3.818,2.079-6.625-12.36Zm.561,16.966,8.2,15.248c1.647,2.118,4.754,2.618,7.973,2.542H481.7V2794.35l-16.395-.115A10.134,10.134,0,0,1,456.882,2791Zm51.574-28.1-4.46,1.906-4.279-6.524c-1.905-3.132-6.106-1.923-8-.717-1.865,1.188-3.432,3.772-4.76,6.263l4.775,8.482-3.657,2.354,13.949.158Zm-15.011-7.731-17.22-.174c-2.638.423-4.579,2.916-6.073,5.788l-4.192,7.614,12.544,7,8.049-14.381A10.193,10.193,0,0,1,493.445,2755.169Zm.749,58.836.507-4.852,7.742-.6c3.644-.159,4.631-4.445,4.5-6.7-.127-2.219-1.613-4.851-3.133-7.228l-9.683.093-.272-4.362-6.9,12.207Zm13.993-9.47,8.5-15.08c.911-2.529-.314-5.446-2.084-8.154l-4.582-7.383-12.162,7.652,8.591,14.059A10.3,10.3,0,0,1,508.188,2804.535Z" transform="translate(-456.003 -2754.995)" fill="#84bc22"/>
</svg>
